<svg width="110" height="110" viewBox="0 0 110 110" fill="none" xmlns="http://www.w3.org/2000/svg">
<path d="M57.8861 18.0021C55.7611 18.0333 53.7259 18.3497 51.7103 18.8575C50.7806 19.0919 50.1322 19.9317 50.14 20.8887V23.4121C46.5384 22.8653 43.2416 23.0059 39.96 23.7676L39.9561 23.7637C39.0147 23.9824 38.3428 24.8223 38.3428 25.791V48.49L34.8389 44.4275V44.4314C34.2061 43.6892 33.1475 43.4861 32.2842 43.9392L23.1045 48.7869V48.783C22.2099 49.2596 21.7881 50.3103 22.1045 51.2752C26.8311 65.6462 34.8975 82.4162 42.6665 92.2132H42.6626C43.0571 92.7093 43.6587 92.9984 44.2954 92.9984H77.6194C78.5022 93.0023 79.2913 92.4476 79.5882 91.6156C83.7562 79.7016 87.4437 60.1466 87.4437 31.2056H87.4476C87.4515 30.3423 86.9202 29.565 86.1117 29.2525C83.85 28.3814 80.9828 27.6978 78.2211 28.3462V24.9165C78.225 24.104 77.7562 23.3696 77.0219 23.0259C73.6664 21.4517 69.9321 21.2407 66.0879 22.272V20.8892C66.0918 19.9478 65.4668 19.1236 64.5606 18.8736C62.2129 18.2291 60.0059 17.9713 57.8848 18.0025L57.8861 18.0021ZM58.0384 22.5177C59.2962 22.5099 60.5814 22.6231 61.9212 22.8849V34.4979H61.9173C61.9173 35.0525 62.1361 35.5877 62.5267 35.9784C62.9212 36.3729 63.4564 36.5916 64.0111 36.5877C64.5619 36.5877 65.0931 36.369 65.4838 35.9745C65.8744 35.5838 66.0932 35.0526 66.0893 34.4979V26.6268C69.1284 25.6151 71.6245 25.9432 74.0541 26.7908V38.5248C74.0502 39.0795 74.2689 39.6146 74.6634 40.0092C75.0541 40.3998 75.5892 40.6186 76.1439 40.6186C76.6986 40.6147 77.2259 40.3959 77.6166 40.0014C78.0073 39.6108 78.226 39.0795 78.2221 38.5248V32.7592C79.558 32.2162 81.4057 32.6459 83.1596 33.0951C82.9799 59.5911 79.7026 77.7241 75.9955 88.8291H73.4721C73.4721 86.3994 72.8081 84.3603 71.519 82.9189C70.2299 81.4814 68.5151 80.7548 66.7846 80.3369C63.3198 79.4971 59.4369 79.6338 56.0346 78.8642C51.6518 77.876 47.9838 75.4931 43.9606 70.5869C40.1364 65.9228 36.0895 58.9579 31.2966 49.1689L32.7614 48.3955L38.8512 55.4385C39.4176 56.0987 40.3356 56.3369 41.152 56.0362C41.9684 55.7354 42.5114 54.9581 42.5153 54.0909V27.8209C44.9723 27.4146 47.3473 27.192 50.1403 27.6373V35.8639C50.1325 37.0162 51.0622 37.9498 52.2145 37.9577C52.7692 37.9577 53.3043 37.7389 53.695 37.3444C54.0895 36.9538 54.3083 36.4186 54.3044 35.8639V22.8989C55.5388 22.6567 56.7771 22.5239 58.0349 22.5161L58.0384 22.5177ZM27.6204 51.1117C32.4446 60.9672 36.5579 68.1317 40.7294 73.2207C45.1396 78.5996 49.7646 81.7129 55.1084 82.9199C59.1943 83.8417 63.2256 83.7714 65.7964 84.3965C67.0816 84.709 67.9019 85.1347 68.4097 85.7012C68.9175 86.2676 69.3043 87.0918 69.3043 88.8262H45.5273C38.7343 80.0176 31.4063 64.8142 26.8433 51.5172L27.6204 51.1117Z" fill="black"/>
</svg>
