<svg width="110" height="110" viewBox="0 0 110 110" fill="none" xmlns="http://www.w3.org/2000/svg">
<path d="M54.8798 17C48.79 17 42.7038 17.2344 38.0558 17.7539C35.7316 18.0117 33.7706 18.3359 32.2394 18.7695C31.4738 18.9883 30.8292 19.2187 30.1925 19.6172C29.6183 19.9726 28.8409 20.6484 28.6886 21.7227C23.0831 44.2847 22.6222 66.4997 26.673 90.8047C26.841 91.8086 27.7121 92.543 28.7316 92.543H48.8486C49.626 92.5391 50.333 92.1055 50.6924 91.418C50.6924 91.418 51.8838 89.0547 53.1885 83.3907C53.7745 80.8477 54.2823 74.4688 54.8799 70.3827C55.4815 74.4686 55.9815 80.8477 56.5674 83.3907C57.8721 89.0548 59.0635 91.418 59.0635 91.418C59.419 92.1055 60.1299 92.5391 60.9033 92.543H81.0203C82.0359 92.5352 82.8953 91.8008 83.0633 90.8047C87.118 66.4847 86.661 44.2657 81.0438 21.6877V21.6838C80.8837 20.633 80.1259 19.969 79.5594 19.6174C78.9227 19.2189 78.2625 18.9885 77.4969 18.7697C75.9657 18.3322 74.0242 18.0119 71.7 17.7541C67.0477 17.2385 60.9698 17 54.8798 17ZM54.8798 21.1523C60.4267 21.1523 65.7858 21.4375 70.0748 21.8593C66.5436 22.4023 62.7662 22.9999 54.8798 22.9999C46.997 22.9999 43.2118 22.4062 39.6808 21.8593C43.966 21.4375 49.3292 21.1523 54.8798 21.1523ZM77.4778 24.9687C81.8645 46.4337 80.8255 59.9137 77.2044 67.7227C73.4466 75.8243 67.1814 78.3207 59.8414 78.3207L59.8453 78.3168C59.8219 78.3207 59.8023 78.3285 59.7789 78.3324C58.7516 72.848 57.6812 65.0394 56.9547 54.1294H56.9586C56.8727 53.0435 55.9664 52.2075 54.8805 52.2075C53.7907 52.2075 52.8883 53.0435 52.8024 54.1294C52.0758 65.0354 51.0055 72.8404 49.9782 78.3244C49.9587 78.3205 49.9352 78.3205 49.9157 78.3205C42.5759 78.3205 36.3107 75.8244 32.5527 67.7225C28.9316 59.9139 27.8965 46.4335 32.2793 24.9725C32.9707 25.1874 33.8027 25.4061 34.8418 25.6288C38.5566 26.4178 44.7245 27.1679 54.8807 27.1679C65.0369 27.1679 71.2008 26.4179 74.9158 25.6288C75.9588 25.4061 76.7903 25.1836 77.4778 24.9687ZM28.5598 68.9917C28.6301 69.1519 28.6926 69.3198 28.7629 69.4761C33.0285 78.6753 40.9899 82.2491 49.1259 82.4641C48.0829 86.9836 47.5556 87.886 47.329 88.3782H30.673C29.6261 81.7649 28.9231 75.3237 28.5598 68.9917ZM81.1928 68.9956C80.8295 75.3237 80.1264 81.7656 79.0795 88.3746H62.4075C62.1771 87.8824 61.6653 86.9801 60.6263 82.4605C68.7591 82.2457 76.7243 78.6714 80.9893 69.4725C81.0596 69.3163 81.1221 69.1483 81.1924 68.992L81.1928 68.9956Z" fill="black"/>
</svg>
