<svg width="110" height="110" viewBox="0 0 110 110" fill="none" xmlns="http://www.w3.org/2000/svg">
<path d="M80.23 36.0822L69.812 36.1799C68.6714 36.1916 67.7495 37.1213 67.7495 38.2658V44.2306C65.3081 46.3283 63.5815 49.2736 63.5815 52.7423L63.5854 89.2073C63.5854 95.5198 68.7299 100.664 75.0424 100.664C81.3549 100.664 86.4994 95.5198 86.4994 89.2073V52.7423C86.4994 49.2735 84.7728 46.3321 82.3314 44.2345L82.3354 38.1642C82.3354 37.6095 82.1127 37.0783 81.7182 36.6837C81.3197 36.2931 80.7848 36.0783 80.23 36.0822ZM78.1675 40.2697V44.9533C78.1675 45.6486 78.5152 46.2971 79.0894 46.6838C81.0464 47.9924 82.3316 50.1877 82.3316 52.7424L82.3355 89.2074C82.3355 93.2816 79.1207 96.5004 75.0425 96.5004C70.9683 96.5004 67.7495 93.2856 67.7495 89.2074V52.7424C67.7495 50.1877 69.0307 47.9924 70.9878 46.6838C71.5659 46.2971 71.9175 45.6486 71.9175 44.9533V40.3283L78.1675 40.2697Z" fill="black"/>
<path d="M26.082 9.00021C24.9336 9.00021 24 9.9338 24 11.0822V21.5002C24 22.6525 24.9336 23.5822 26.082 23.5822H32.332C32.6562 23.5822 32.9765 23.508 33.2656 23.3635L36.9922 21.5002H38.582C38.582 21.7189 38.6171 21.9416 38.6836 22.1486L40.6641 28.1798V33.8126C38.2227 35.9103 36.496 38.8556 36.496 42.3243L36.5 89.2073C36.5 95.5198 41.6445 100.664 47.957 100.664C54.2695 100.664 59.414 95.5198 59.414 89.2073V42.3243C59.414 38.8555 57.6874 35.9141 55.246 33.8165V28.086L57.2226 22.1563H57.2265C57.2968 21.9454 57.3319 21.7227 57.3319 21.5001V11.0821C57.3319 9.92975 56.3983 9.00005 55.2499 9.00005H40.6679C39.5156 9.00005 38.582 9.92974 38.582 11.0821H36.9922L33.2656 9.21875C32.9766 9.07422 32.6563 9 32.332 9L26.082 9.00021ZM28.164 13.1682H31.8398L35.5664 15.0315H35.5703C35.8594 15.176 36.1758 15.2503 36.5 15.2503H38.582V17.3323H36.5C36.1758 17.3323 35.8594 17.4104 35.5703 17.5549L31.8398 19.4143H28.164L28.164 13.1682ZM42.746 13.1682H53.164V21.1643L51.664 25.6682H44.2265L42.7499 21.1682L42.746 13.1682ZM44.828 29.8362H51.078V34.5393H51.0819C51.0858 35.2307 51.4296 35.8791 52.0077 36.2659C53.9647 37.5745 55.2499 39.7698 55.2499 42.3245V89.2075C55.2499 93.2817 52.0351 96.5005 47.9569 96.5005C43.8827 96.5005 40.6639 93.2857 40.6639 89.2075V42.3245C40.6639 39.7698 41.9451 37.5745 43.9022 36.2659H43.9061C44.4842 35.8792 44.8319 35.2307 44.8319 34.5354L44.828 29.8362Z" fill="black"/>
</svg>
