<svg width="110" height="110" viewBox="0 0 110 110" fill="none" xmlns="http://www.w3.org/2000/svg">
<path d="M55.301 14C51.0901 14 49.0198 14.0625 47.5002 14.4453C46.7424 14.6367 45.9104 14.9805 45.3635 15.8008C45.2033 16.0391 45.1018 16.2735 45.0315 16.4922C37.6213 22.0781 32.7895 22.3164 28.7735 26.1797C26.7032 28.168 25.2462 31.0235 24.2188 35.4531C23.1915 39.8828 22.5157 45.9961 22.004 55.0151V55.019C21.9688 55.5893 22.168 56.1518 22.5587 56.5698C22.9454 56.9878 23.4923 57.2261 24.0626 57.2339L31.4767 57.3237C32.4376 57.3354 33.2853 56.687 33.5236 55.7573L33.8165 54.6167C35.4688 66.2847 36.0665 78.0937 34.4767 92.4177C34.3634 93.488 35.0822 94.4685 36.1369 94.6794C46.9489 96.8474 63.6249 96.8474 74.4609 94.6794C75.5156 94.4685 76.2343 93.488 76.1211 92.4177C74.5313 78.0937 75.1328 66.2847 76.7852 54.6167L77.0742 55.7573C77.3125 56.687 78.1562 57.3354 79.1211 57.3237L86.5352 57.2339C87.1016 57.2222 87.6446 56.98 88.0274 56.562C88.4141 56.144 88.6134 55.5893 88.5782 55.019C88.0704 45.9995 87.4063 39.886 86.379 35.457C85.3517 31.0273 83.8946 28.1718 81.8243 26.1836C77.8048 22.3203 72.9727 22.082 65.5663 16.4961C65.496 16.2774 65.3944 16.043 65.2343 15.8047C64.6913 14.9883 63.8554 14.6406 63.0976 14.4492C61.582 14.0703 59.5117 14.0039 55.3007 14.0039L55.301 14ZM55.301 18.1719C58.6682 18.1719 59.8987 18.3086 60.8362 18.4336C60.0901 19.8516 58.7073 21.8164 55.301 21.8164C51.8987 21.8164 50.508 19.8555 49.7619 18.4336C50.6955 18.3125 51.9338 18.1719 55.301 18.1719ZM46.2463 20.7578C47.4846 22.6601 49.7033 25.0859 53.2463 25.7812V25.7851C53.2307 25.8515 53.2151 25.9179 53.2072 25.9843V91.7963C48.0197 91.7104 42.9262 91.3276 38.7072 90.6088C40.4767 72.8158 39.7384 58.2138 36.508 43.2848C36.3088 42.3356 35.4807 41.6481 34.508 41.6286C33.5393 41.6091 32.6838 42.2653 32.4455 43.2067L29.8947 53.1286L26.4181 53.0974C26.8986 45.7966 27.4611 39.9214 28.2775 36.3944C29.1994 32.4061 30.2853 30.5038 31.6603 29.1835C34.1798 26.7577 38.9767 25.9569 46.2463 20.7616L46.2463 20.7578ZM64.3363 20.7617C71.6097 25.957 76.4143 26.7578 78.9343 29.1797C80.3054 30.5 81.3913 32.4024 82.3171 36.3906C83.1335 39.9179 83.696 45.7929 84.1765 53.0936L80.6999 53.1249L78.1491 43.203L78.153 43.2069C77.9186 42.2655 77.0632 41.6092 76.0905 41.6288C75.1218 41.6483 74.2897 42.3358 74.0905 43.285C70.86 58.211 70.11 72.812 71.8757 90.609C67.6491 91.3277 62.5593 91.7106 57.3757 91.7965V25.9845C57.3757 25.9181 57.3679 25.8517 57.3601 25.7852C60.8913 25.086 63.1062 22.6641 64.3367 20.7657L64.3363 20.7617Z" fill="black"/>
</svg>
