<svg width="110" height="110" viewBox="0 0 110 110" fill="none" xmlns="http://www.w3.org/2000/svg">
<path d="M26.8281 15.0035C24.6601 15.0035 22.6562 16.1168 20.9375 17.8355L16.5117 22.2457C14.4961 24.2613 14.4961 27.6012 16.5117 29.6129C18.5273 31.6285 21.8633 31.6285 23.875 29.6129L25.3086 28.1793C25.9609 27.527 26.375 27.1559 26.6484 26.9332C26.7265 26.9879 26.6796 26.9254 26.9843 27.2418C27.5 27.773 28.2538 28.6676 29.2577 29.8707L61.5077 68.4727C59.6757 69.6719 57.9452 71.3907 58.5389 73.6094C59.2772 76.3633 62.1678 78.0196 64.9217 77.2852C66.9139 76.75 68.4803 75.5157 70.0584 74.3204L70.2889 74.5509L79.117 83.3751L76.9139 85.5899C74.8983 87.6055 74.8983 90.9454 76.9139 92.9571C78.9295 94.9727 82.2655 94.9727 84.2772 92.9571L88.0936 89.1407C89.3553 89.0938 90.6913 89.4961 91.6444 88.543L93.8397 86.3282C95.8553 84.3126 95.8553 80.9727 93.8397 78.961L32.7107 17.832C30.9919 16.1132 28.988 15 26.8201 15L26.8281 15.0035ZM26.8281 19.1715C27.6054 19.1715 28.539 19.5465 29.7656 20.7731L90.9106 81.9181C91.3442 82.3517 91.3442 82.9454 90.9106 83.379L88.6958 85.5938C88.3599 85.9297 87.9067 85.9805 87.5122 85.793H87.5161C86.7192 85.4141 85.7739 85.5743 85.1489 86.1954L81.3364 90.0079C80.9028 90.4415 80.2934 90.4415 79.8598 90.0079C79.4262 89.5743 79.4262 88.9806 79.8598 88.547L83.5512 84.8556L83.5473 84.8595C84.3559 84.0431 84.3559 82.7306 83.5473 81.9181L73.2273 71.5981L71.9343 70.2934C71.5437 69.9027 71.0124 69.684 70.4616 69.684C69.9069 69.684 69.3757 69.9027 68.985 70.2934C67.5944 71.6879 65.8405 72.7426 63.8444 73.2778C63.2663 73.434 62.7272 73.1215 62.571 72.5434C62.4147 71.9653 62.7273 71.4223 63.3054 71.2661C64.0202 71.0747 64.696 70.7973 65.3366 70.4536L65.3405 70.4497C65.8913 70.1528 66.278 69.6255 66.3991 69.0122C66.5163 68.395 66.3561 67.7622 65.9538 67.2817L32.4418 27.2077C31.4379 26.0046 30.6762 25.0905 29.9691 24.36C29.2581 23.6295 28.5941 22.9733 27.4769 22.6842C26.3636 22.3951 25.1488 22.8522 24.4183 23.3756C23.6878 23.899 23.1214 24.5084 22.3714 25.2545L20.9378 26.6842C20.5042 27.1178 19.8987 27.1178 19.4651 26.6842C19.0315 26.2506 19.0315 25.6412 19.4651 25.2076L23.8753 20.7818C25.1019 19.5552 26.0511 19.1841 26.8284 19.1841L26.8281 19.1715ZM87.223 80.4685C86.6683 80.4646 86.141 80.6873 85.7503 81.0779C85.3597 81.4685 85.1409 81.9959 85.1409 82.5506C85.1409 83.1014 85.3597 83.6326 85.7503 84.0233C86.1409 84.4139 86.6683 84.6327 87.223 84.6327C88.3714 84.6327 89.305 83.6991 89.305 82.5507C89.305 81.996 89.0863 81.4687 88.6956 81.078C88.305 80.6873 87.7738 80.4685 87.223 80.4685Z" fill="black"/>
</svg>
