<svg width="110" height="110" viewBox="0 0 110 110" fill="none" xmlns="http://www.w3.org/2000/svg">
<path d="M42.3477 9.00006C41.793 8.99615 41.2618 9.21489 40.8672 9.60552C40.4727 9.99614 40.25 10.5274 40.25 11.0821V27.7501C40.25 28.0118 39.9805 29.1446 39.4297 30.4962C38.8789 31.8478 38.1016 33.4884 37.3086 35.2462C35.7266 38.7579 34 42.6798 34 46.5002V94.4182C34 97.844 36.8242 100.668 40.25 100.668H69.418C72.8438 100.668 75.668 97.844 75.668 94.4182V46.5002C75.668 41.2424 71.5899 38.1369 71.5899 38.1369L58.9999 28.3361C58.9999 28.3361 56.9179 26.59 56.9179 24.215V11.172H56.914C56.914 10.0275 55.9921 9.09782 54.8476 9.09002L42.3477 9.00006ZM44.4141 13.1837L52.7461 13.2383V17.3321H44.4141V13.1837ZM44.4141 21.5001H52.7461V24.2149C52.7461 28.8711 56.4375 31.6251 56.4375 31.6251L69.0235 41.4259C69.0235 41.4259 71.4962 43.4259 71.4962 46.5001V94.4181C71.4962 95.6095 70.6017 96.5001 69.4142 96.5001H40.2462C39.0548 96.5001 38.1642 95.6055 38.1642 94.4181V46.5001C38.1642 44.0704 39.5665 40.3751 41.1056 36.9532C41.8751 35.2423 42.6642 33.586 43.2814 32.0704C43.9025 30.5548 44.4142 29.2462 44.4142 27.7501L44.4141 21.5001ZM42.3321 48.5821C41.7813 48.5821 41.2501 48.8047 40.8594 49.1953C40.4687 49.586 40.25 50.1133 40.25 50.668C40.25 51.2188 40.4688 51.75 40.8594 52.1407C41.25 52.5314 41.7813 52.7501 42.3321 52.7501H54.8321C55.9844 52.7501 56.918 51.8165 56.918 50.6681C56.918 50.1134 56.6953 49.5861 56.3047 49.1954C55.9141 48.8047 55.3867 48.5821 54.832 48.5821L42.3321 48.5821ZM42.3321 54.8321C41.7813 54.8321 41.2501 55.0547 40.8594 55.4453C40.4687 55.836 40.25 56.3633 40.25 56.918C40.25 57.4688 40.4688 58 40.8594 58.3907C41.25 58.7814 41.7813 59.0001 42.3321 59.0001H67.3321C68.4844 59.0001 69.418 58.0665 69.418 56.9181C69.418 56.3634 69.1953 55.8361 68.8047 55.4454C68.4141 55.0547 67.8867 54.8321 67.332 54.8321L42.3321 54.8321ZM54.8321 63.1641C46.8009 63.1641 40.2501 69.7188 40.2501 77.7461C40.2501 85.7773 46.8048 92.3281 54.8321 92.3281C62.8633 92.3281 69.4141 85.7734 69.4141 77.7461C69.4141 69.7149 62.8594 63.1641 54.8321 63.1641ZM52.7501 67.5391V73.6133C52.5938 73.6953 52.4415 73.7812 52.2931 73.8789L47.0236 70.8359C48.4924 69.1757 50.4844 67.9962 52.7501 67.5391ZM56.9181 67.5391C59.1837 67.9961 61.1759 69.1758 62.6447 70.836L57.3752 73.879C57.2307 73.7813 57.0783 73.6954 56.9182 73.6133L56.9181 67.5391ZM44.9491 74.4453L50.2069 77.4805C50.1991 77.5703 50.1913 77.6601 50.1913 77.75C50.1913 77.8398 50.1991 77.9297 50.2069 78.0195L44.9491 81.0547C44.6054 80.0195 44.4179 78.9063 44.4179 77.75C44.4179 76.5937 44.6093 75.4844 44.9491 74.4453ZM64.7191 74.4453C65.0629 75.4805 65.2464 76.5937 65.2464 77.75C65.2464 78.9063 65.0589 80.0156 64.7191 81.0547L59.4613 78.0195C59.4691 77.9296 59.4691 77.8398 59.4691 77.7499C59.4691 77.6601 59.4652 77.5702 59.4613 77.4804L64.7191 74.4453ZM52.2931 81.6172C52.4376 81.7148 52.59 81.8007 52.7501 81.8828V87.957C50.4845 87.5 48.4923 86.3203 47.0235 84.6601L52.2931 81.6172ZM57.3712 81.6172L62.6407 84.6602C61.1719 86.3204 59.1798 87.5 56.9141 87.9571V81.8829C57.0704 81.8008 57.2228 81.7148 57.3712 81.6172Z" fill="black"/>
</svg>
