<svg width="110" height="110" viewBox="0 0 110 110" fill="none" xmlns="http://www.w3.org/2000/svg">
<path d="M40.086 9.00004C39.5313 9.00004 39.004 9.21879 38.6133 9.60942C38.2226 10.0001 38 10.5313 38 11.0821V13.168C38 13.7188 38.2227 14.25 38.6133 14.6407C39.0039 15.0314 39.5312 15.2501 40.086 15.2501C40.8243 15.2462 41.5079 14.8517 41.879 14.2071H41.9805C42.6446 14.2071 43.1172 14.6798 43.1172 15.3438V98.6758C43.1172 99.8281 44.0508 100.758 45.1992 100.758C46.3515 100.758 47.2812 99.8242 47.2812 98.6758V15.3438C47.2812 12.4415 44.8789 10.043 41.9804 10.043H41.8867C41.5156 9.39847 40.8282 9.00004 40.086 9.00004ZM52.586 9.00004C52.0313 9.00004 51.504 9.21879 51.1133 9.60942C50.7226 10.0001 50.5 10.5313 50.5 11.0821V13.168C50.5 13.7188 50.7227 14.25 51.1133 14.6407C51.5039 15.0314 52.0312 15.2501 52.586 15.2501C53.3243 15.2462 54.0079 14.8517 54.379 14.2071H54.4805C55.1446 14.2071 55.6172 14.6798 55.6172 15.3438V98.6758C55.6172 99.8281 56.5508 100.758 57.6992 100.758C58.8515 100.758 59.7812 99.8242 59.7812 98.6758V15.3438C59.7812 12.4415 57.3789 10.043 54.4804 10.043H54.3867C54.0156 9.39847 53.3282 9.00004 52.586 9.00004ZM65.086 9.00004C64.5313 9.00004 64.004 9.21879 63.6133 9.60942C63.2226 10.0001 63 10.5313 63 11.0821V13.168C63 13.7188 63.2227 14.25 63.6133 14.6407C64.0039 15.0314 64.5312 15.2501 65.086 15.2501C65.8243 15.2462 66.5079 14.8517 66.879 14.2071H66.9805C67.6446 14.2071 68.1172 14.6798 68.1172 15.3438V98.6758C68.1172 99.8281 69.0508 100.758 70.1992 100.758C71.3515 100.758 72.2812 99.8242 72.2812 98.6758V15.3438C72.2812 12.4415 69.8789 10.043 66.9804 10.043H66.8867C66.5156 9.39847 65.8282 9.00004 65.086 9.00004Z" fill="black"/>
</svg>
