<svg width="110" height="110" viewBox="0 0 110 110" fill="none" xmlns="http://www.w3.org/2000/svg">
<path d="M53.6482 15.015C36.0972 15.4329 20.9022 27.382 16.3552 44.339C10.7029 65.433 23.2497 87.163 44.3432 92.812C65.4372 98.4643 87.1672 85.9175 92.8162 64.824C98.4685 43.73 85.9217 22 64.8282 16.351C61.1837 15.3744 57.418 14.9213 53.6442 15.0112L53.6482 15.015ZM53.742 19.183C57.117 19.1009 60.492 19.4955 63.75 20.3666C82.668 25.4369 93.855 44.8316 88.785 63.7496C83.7186 82.6676 64.336 93.8546 45.418 88.7846C26.5 83.7182 15.297 64.3356 20.363 45.4176C24.4333 30.2266 38.015 19.5546 53.738 19.1796L53.742 19.183ZM54.5857 21.2494C53.4334 21.2494 52.4998 22.183 52.4998 23.3314C52.4998 24.4837 53.4334 25.4173 54.5857 25.4173C55.7341 25.4173 56.6677 24.4837 56.6677 23.3314C56.6677 22.183 55.7341 21.2494 54.5857 21.2494ZM46.5466 22.3158H46.5427C46.3474 22.3119 46.1482 22.3353 45.9607 22.3861C44.8474 22.683 44.1873 23.8275 44.4841 24.9369C44.7848 26.0502 45.9255 26.7064 47.0388 26.4096C48.1482 26.1127 48.8083 24.9682 48.5115 23.8588C48.2693 22.9643 47.4684 22.3393 46.5466 22.3158ZM62.6286 22.3158H62.6247C61.6989 22.3353 60.8981 22.9642 60.6599 23.8588C60.363 24.9682 61.0232 26.1088 62.1326 26.4096C63.2459 26.7065 64.3865 26.0463 64.6834 24.9369C64.9803 23.8236 64.324 22.683 63.2107 22.3822C63.0193 22.3314 62.824 22.308 62.6248 22.3119L62.6286 22.3158ZM39.0587 25.4369C38.6603 25.4173 38.2657 25.5111 37.9181 25.7103C37.4415 25.9877 37.09 26.4447 36.9494 26.9798C36.8048 27.5111 36.879 28.0814 37.1564 28.5618C37.7345 29.554 39.008 29.8938 40.0041 29.3196C40.9963 28.7454 41.3361 27.4719 40.7619 26.4758C40.4103 25.8625 39.7657 25.4682 39.0587 25.4369ZM70.1137 25.4369C69.4028 25.472 68.7621 25.8627 68.4067 26.476C67.8325 27.4721 68.1723 28.7455 69.1684 29.3237C70.1645 29.8979 71.4379 29.5541 72.0122 28.562C72.2896 28.0815 72.3677 27.5151 72.2232 26.98C72.0786 26.4448 71.731 25.9878 71.2505 25.7144C70.9067 25.5151 70.5121 25.4173 70.1137 25.4369ZM54.5786 27.5033C49.063 27.5423 43.6916 29.2494 39.1806 32.4213H39.1767C38.2861 33.0424 38.0205 34.2377 38.5634 35.1752L44.3603 45.2022C44.7314 45.8506 45.4228 46.2491 46.1689 46.2491C46.915 46.2491 47.6025 45.8506 47.9736 45.2022L56.3877 30.6242C56.7588 29.9757 56.7588 29.1828 56.3838 28.5383C56.0088 27.8938 55.3174 27.4992 54.5752 27.5031L54.5786 27.5033ZM65.0627 29.9721C64.3635 30.015 63.7346 30.4018 63.383 31.0073L57.5861 41.0383V41.0344C57.215 41.6828 57.215 42.4758 57.59 43.1203C57.965 43.7648 58.6525 44.1594 59.3986 44.1555H76.2426C76.9848 44.1555 77.6684 43.757 78.0395 43.1125C78.4067 42.4718 78.4106 41.6789 78.0395 41.0344C75.2504 36.2766 71.0629 32.4836 66.0595 30.1634C65.7509 30.0188 65.4065 29.9525 65.0627 29.9721ZM32.3397 30.4096C31.8397 30.4447 31.367 30.6557 31.0116 31.0111C30.1991 31.8236 30.1991 33.1439 31.0116 33.9564C31.828 34.7689 33.1444 34.7689 33.9608 33.9564C34.7733 33.1439 34.7733 31.8236 33.9608 31.0111C33.5311 30.5854 32.9413 30.3666 32.3397 30.4096ZM76.5347 30.4096C76.0347 30.4447 75.5659 30.6596 75.2105 31.0111C74.398 31.8236 74.398 33.1439 75.2105 33.9564C76.023 34.7689 77.3433 34.7689 78.1558 33.9564C78.9683 33.1439 78.9683 31.8236 78.1558 31.0111C77.73 30.5854 77.1363 30.3627 76.5347 30.4096ZM50.1636 33.101L46.1792 39.9916L43.4292 35.2572C45.5034 34.0502 47.8315 33.6127 50.1636 33.1049V33.101ZM65.7576 35.2377C67.8396 36.433 69.3982 38.2377 71.0037 40.0072H63.0076L65.7576 35.2377ZM27.4258 36.8744C26.7149 36.9095 26.0742 37.3001 25.7188 37.9174C25.1446 38.9096 25.4844 40.183 26.4805 40.7612C27.4766 41.3354 28.75 40.9955 29.3243 39.9994C29.6017 39.519 29.6759 38.9525 29.5353 38.4174C29.3907 37.8823 29.0431 37.4292 28.5626 37.1518C28.2188 36.9526 27.8242 36.8548 27.4258 36.8744ZM81.7458 36.8744C81.3473 36.8548 80.9528 36.9525 80.6052 37.1517C80.1286 37.4251 79.7771 37.8822 79.6364 38.4173C79.4919 38.9525 79.57 39.5189 79.8474 39.9993C80.4216 40.9915 81.6951 41.3352 82.6912 40.761C83.6834 40.1829 84.0232 38.9094 83.449 37.9133C83.0974 37.3 82.4528 36.9096 81.7458 36.8744ZM32.9338 40.0072C32.1955 40.0072 31.5119 40.3978 31.1369 41.0384C28.7619 45.1556 27.508 49.8353 27.508 54.5894V54.5855C27.5041 54.6167 27.5041 54.648 27.508 54.6753C27.5392 55.4292 27.6096 56.187 27.7072 56.937C27.84 57.9722 28.7189 58.7495 29.7658 58.7534H41.3638H41.3599C42.106 58.7495 42.7896 58.355 43.1607 57.7104C43.5318 57.0659 43.5318 56.2729 43.1607 55.6284L34.7349 41.0384L34.6568 41.1595H34.6529C34.3248 40.4954 33.6682 40.0579 32.9338 40.0072ZM24.3557 44.4095H24.3479C23.426 44.4329 22.6252 45.0618 22.387 45.9564C22.0901 47.0658 22.7503 48.2103 23.8597 48.5072C24.973 48.804 26.1136 48.1439 26.4105 47.0345C26.7113 45.9212 26.0511 44.7806 24.9378 44.4837C24.7464 44.4329 24.5472 44.4055 24.348 44.4134L24.3557 44.4095ZM84.8247 44.4095H84.8169C84.6216 44.4056 84.4224 44.429 84.2309 44.4798C83.1215 44.7767 82.4615 45.9212 82.7583 47.0306C83.059 48.1439 84.1997 48.804 85.3091 48.5033C86.4224 48.2064 87.0825 47.0658 86.7857 45.9525C86.5435 45.0579 85.7426 44.4291 84.8168 44.4056L84.8247 44.4095ZM54.5947 46.2493C50.0166 46.2493 46.2588 50.0071 46.2588 54.5852C46.2588 59.1633 50.0166 62.9172 54.5947 62.9172C59.1728 62.9172 62.9267 59.1633 62.9267 54.5852C62.9267 50.0071 59.1728 46.2493 54.5947 46.2493ZM33.5987 47.3899L37.7549 54.5891H31.6807V54.5734C31.6807 52.05 32.794 49.7609 33.6026 47.3898L33.5987 47.3899ZM54.5947 50.4172C56.9189 50.4172 58.7627 52.261 58.7627 54.5891C58.7627 56.9133 56.9229 58.7571 54.5947 58.7571C52.2705 58.7571 50.4228 56.9173 50.4228 54.5891C50.4228 52.2649 52.2666 50.4172 54.5947 50.4172ZM67.8177 50.4172H67.8138C67.0716 50.4172 66.388 50.8156 66.0169 51.4602C65.6458 52.1008 65.6458 52.8938 66.0169 53.5383L74.4271 68.1163C74.7982 68.7608 75.4896 69.1593 76.2318 69.1593C76.9779 69.1593 77.6693 68.7608 78.0404 68.1163C80.4154 64.003 81.6654 59.3351 81.6693 54.5853V54.5696V54.5657V54.5618V54.5579V54.554V54.5384V54.5345V54.5306V54.5267V54.5228V54.5071V54.5032V54.4993V54.4954V54.4915V54.4759C81.638 53.722 81.5677 52.9681 81.4701 52.2181C81.3373 51.179 80.4545 50.4056 79.4115 50.4017L67.8177 50.4172ZM23.3368 52.4992C22.1845 52.4992 21.2509 53.4328 21.2509 54.5812C21.2509 55.7335 22.1845 56.6671 23.3368 56.6671C24.4852 56.6671 25.4188 55.7335 25.4188 54.5812C25.4188 53.4328 24.4852 52.4992 23.3368 52.4992ZM85.8368 52.4992C84.6845 52.4992 83.7509 53.4328 83.7509 54.5812C83.7509 55.7335 84.6845 56.6671 85.8368 56.6671C86.9852 56.6671 87.9188 55.7335 87.9188 54.5812C87.9188 53.4328 86.9852 52.4992 85.8368 52.4992ZM71.4307 54.5851H77.4893H77.5049V54.6007C77.501 57.1124 76.3877 59.3937 75.583 61.753L71.4307 54.5851ZM24.4498 60.589C24.2506 60.5851 24.0514 60.6085 23.86 60.6593C22.7506 60.9562 22.0905 62.0968 22.3873 63.2101C22.6841 64.3195 23.8287 64.9796 24.9381 64.6828C26.0514 64.3859 26.7115 63.2414 26.4108 62.132C26.1725 61.2414 25.3755 60.6125 24.4498 60.589ZM84.7237 60.5851L84.7198 60.589C83.7979 60.6085 83.001 61.2374 82.7589 62.132C82.462 63.2414 83.1222 64.382 84.2316 64.6828C85.3449 64.9796 86.4855 64.3195 86.7863 63.2101C87.0832 62.0968 86.423 60.9562 85.3097 60.6554C85.1183 60.6046 84.9191 60.5812 84.7199 60.5851L84.7237 60.5851ZM63.0008 62.921C62.2625 62.9171 61.575 63.3116 61.2039 63.9483L52.7898 78.5423L52.7859 78.5462C52.4187 79.1868 52.4187 79.9798 52.7898 80.6204C53.1609 81.2649 53.8445 81.6634 54.5867 81.6673C60.1101 81.6673 65.5087 79.9759 70.0437 76.8235C70.9343 76.2063 71.1999 75.0071 70.657 74.0696L64.8132 63.9486H64.8171C64.4382 63.304 63.7469 62.9131 63.0008 62.921ZM32.9387 64.9913L32.9348 64.9952C32.1887 64.9952 31.4973 65.3936 31.1262 66.0421C30.7551 66.6905 30.759 67.4874 31.1379 68.1319C33.927 72.8897 38.0988 76.6827 43.0989 79.0029C44.0794 79.4677 45.2512 79.1005 45.7942 78.163L51.5754 68.116C51.9465 67.4715 51.9426 66.6785 51.5754 66.0379C51.2043 65.3934 50.5207 64.9988 49.7785 64.9949L32.9387 64.9913ZM27.6223 68.1241C27.2239 68.1045 26.8254 68.2022 26.4817 68.4014C26.0012 68.6748 25.6536 69.1319 25.513 69.667C25.3684 70.2022 25.4426 70.7686 25.72 71.249C26.2981 72.2412 27.5716 72.5849 28.5638 72.0107C29.5599 71.4326 29.8997 70.1591 29.3255 69.163C28.9739 68.5497 28.3293 68.1593 27.6223 68.1241ZM81.5523 68.1241C80.8453 68.1592 80.2007 68.5498 79.8453 69.1671C79.2711 70.1593 79.6148 71.4327 80.607 72.0109C81.6031 72.5851 82.8765 72.2452 83.4508 71.2491C83.7282 70.7687 83.8063 70.2022 83.6618 69.6671C83.5211 69.132 83.1696 68.6789 82.693 68.4015C82.3453 68.2023 81.9507 68.1045 81.5523 68.1241ZM38.1852 69.1632H46.1813L43.4313 73.9132C41.3493 72.7179 39.7946 70.9327 38.1852 69.1632ZM63.0212 69.1632L65.8024 73.9718C63.7008 75.1749 61.3454 75.6202 58.986 76.1124L63.0212 69.1632ZM32.3413 74.6007C31.8413 74.6358 31.3686 74.8507 31.0132 75.2022C30.2007 76.0186 30.2007 77.335 31.0132 78.1514C31.8296 78.9639 33.146 78.9639 33.9624 78.1514C34.7749 77.335 34.7749 76.0186 33.9624 75.2022C33.5327 74.7764 32.9429 74.5577 32.3413 74.6007ZM76.5363 74.6007C76.0363 74.6358 75.5676 74.8507 75.2121 75.2022C74.3996 76.0186 74.3996 77.335 75.2121 78.1514C76.0246 78.9639 77.3449 78.9639 78.1574 78.1514C78.9699 77.335 78.9699 76.0186 78.1574 75.2022C77.7316 74.7764 77.1379 74.5577 76.5363 74.6007ZM38.8643 79.5655C38.1573 79.6006 37.5127 79.9912 37.1573 80.6046C36.5831 81.6007 36.9229 82.8702 37.919 83.4484C38.9151 84.0226 40.1885 83.6827 40.7628 82.6866C41.337 81.6906 40.9972 80.4171 40.0011 79.8428C39.6574 79.6436 39.2627 79.5459 38.8643 79.5655ZM70.3093 79.5655C69.9109 79.5459 69.5163 79.6436 69.1687 79.8428C68.1726 80.417 67.8328 81.6905 68.407 82.6866C68.9851 83.6827 70.2586 84.0225 71.2547 83.4483C72.2469 82.8702 72.5867 81.5967 72.0125 80.6045C71.657 79.9912 71.0163 79.5968 70.3093 79.5655ZM46.4542 82.6827H46.4464C45.5245 82.7061 44.7237 83.335 44.4855 84.2296C44.1886 85.339 44.8488 86.4835 45.9582 86.7804C47.0715 87.0772 48.2121 86.4171 48.5129 85.3077C48.8098 84.1944 48.1496 83.0538 47.0402 82.7569C46.8449 82.7022 46.6457 82.6787 46.4504 82.6866L46.4542 82.6827ZM62.7312 82.6827H62.7234C62.5242 82.6788 62.325 82.7022 62.1336 82.753C61.0242 83.0499 60.3641 84.1944 60.6609 85.3038C60.9577 86.4171 62.1023 87.0733 63.2117 86.7765C64.325 86.4796 64.9812 85.339 64.6844 84.2257C64.4461 83.3311 63.6492 82.7023 62.7235 82.6788L62.7312 82.6827ZM54.5867 83.7491C53.4344 83.7491 52.5008 84.6827 52.5008 85.8311C52.5008 86.9834 53.4344 87.917 54.5867 87.917C55.7351 87.917 56.6687 86.9834 56.6687 85.8311C56.6687 84.6827 55.7351 83.7491 54.5867 83.7491Z" fill="black"/>
</svg>
