<svg width="110" height="110" viewBox="0 0 110 110" fill="none" xmlns="http://www.w3.org/2000/svg">
<path d="M35.566 27.0041C20.367 27.0041 8 39.3401 8 54.5081C8 69.6761 20.371 82.0121 35.566 82.0121C43.2222 82.0121 50.16 78.8754 55.164 73.8285C62.7382 81.4847 74.18 84.0785 84.391 80.2855C95.2 76.2738 102.371 65.9535 102.344 54.4455C102.321 42.9375 95.0979 32.6525 84.274 28.6875C81.567 27.6953 78.7779 27.1523 75.9967 27.0313C68.3092 26.6954 60.7037 29.586 55.1647 35.1836C50.1647 30.1367 43.2267 27 35.5667 27L35.566 27.0041ZM35.566 31.1721C48.519 31.1721 58.968 41.5981 58.968 54.5081C58.968 67.4181 48.519 77.8441 35.566 77.8441C22.613 77.8441 12.164 67.4181 12.164 54.5081C12.164 41.5981 22.613 31.1721 35.566 31.1721ZM74.039 31.1799C76.9765 31.0862 79.9648 31.5471 82.8398 32.6018C92.0429 35.9729 98.1518 44.6838 98.1758 54.4568C98.1992 64.2302 92.125 72.9688 82.9378 76.3788C74.1409 79.6444 64.3128 77.3358 57.8788 70.6327C58.2186 70.1679 58.5429 69.6874 58.8515 69.1991C64.5468 75.3475 73.4025 77.7225 81.5275 75.0624C90.5197 72.121 96.5705 63.6834 96.4575 54.2424C96.3442 44.801 90.0903 36.5154 81.0315 33.7934C73.0159 31.3832 64.4185 33.8169 58.8555 39.8207C58.543 39.3324 58.2148 38.852 57.875 38.3832C62.1797 33.8949 68.008 31.3715 74.035 31.1801L74.039 31.1799ZM35.566 32.8713C23.617 32.8713 13.878 42.5783 13.878 54.5083C13.878 66.4383 23.6163 76.1453 35.566 76.1453C47.515 76.1453 57.254 66.4383 57.254 54.5083C57.254 42.5783 47.5157 32.8713 35.566 32.8713ZM74.289 37.0393C75.2773 37.0159 76.2695 37.0784 77.2617 37.219L74.2851 48.305L74.2812 48.3011C74.2617 48.3792 74.2499 48.4573 74.2421 48.5394C73.5468 48.6019 72.8749 48.7855 72.2538 49.0745V49.0784C72.1991 49.0081 72.1405 48.9417 72.0819 48.8831L63.9492 40.7698C66.9023 38.4534 70.5311 37.1409 74.2851 37.0393L74.289 37.0393ZM33.484 37.1643V48.6413L33.4801 48.6374C33.4879 48.7194 33.4957 48.7976 33.5113 48.8796C32.8942 49.1062 32.3238 49.4343 31.8199 49.8405V49.8366C31.7496 49.7858 31.6793 49.7351 31.6051 49.6921L21.7457 43.7546C24.5465 40.1765 28.7184 37.7234 33.4837 37.1608L33.484 37.1643ZM37.652 37.1643C42.4059 37.7229 46.5661 40.1643 49.367 43.7229L39.5193 49.6799H39.5154C39.4451 49.7268 39.3787 49.7815 39.3123 49.8401C38.8084 49.4338 38.2381 49.1057 37.6209 48.8791C37.6365 48.7971 37.6443 48.719 37.6521 48.6369L37.652 37.1643ZM81.289 38.2932C85.7968 40.0901 89.2734 43.6409 91.0312 48.0041L79.9222 50.9729H79.9183C79.8363 51.0003 79.7542 51.0315 79.6761 51.0667C79.2816 50.5003 78.7894 50.0003 78.2191 49.5979C78.2543 49.5276 78.2816 49.4533 78.305 49.3791L81.289 38.2932ZM61.008 43.7112L69.1447 51.8323H69.1408C69.2033 51.887 69.2658 51.9339 69.3283 51.9808C69.1838 52.2893 69.0666 52.6175 68.9728 52.9573C68.883 53.2933 68.8244 53.6292 68.7931 53.9612C68.7111 53.9768 68.6291 53.9847 68.547 54.0081L63.1056 55.4769C63.1135 55.1527 63.1291 54.8284 63.1291 54.5003C63.1291 50.6956 62.3517 47.0706 60.9494 43.7733C60.965 43.7499 60.9806 43.7265 61.0041 43.703L61.008 43.7112ZM19.594 47.3206L29.4573 53.262L29.4534 53.2581C29.5237 53.2972 29.5979 53.3323 29.6721 53.3597C29.6018 53.7308 29.5589 54.1136 29.5589 54.5042C29.5589 54.8987 29.5979 55.2854 29.6721 55.6604C29.5979 55.6916 29.5276 55.7229 29.4573 55.7619L19.6018 61.7228C18.6018 59.5236 18.0432 57.0822 18.0432 54.504C18.0432 51.9376 18.6018 49.5079 19.5901 47.3165L19.594 47.3206ZM52.106 48.7112C52.7427 50.5237 53.0904 52.4729 53.0904 54.5042C53.0904 56.5355 52.7427 58.4808 52.106 60.2933C51.1294 56.4964 51.1294 52.5121 52.106 48.7073V48.7112ZM47.6451 49.637C47.067 52.8479 47.067 56.1331 47.6412 59.3401L41.6764 55.7463L41.6725 55.7502C41.6022 55.7111 41.528 55.6799 41.4537 55.6486C41.5241 55.2775 41.567 54.8947 41.567 54.5041C41.567 54.1096 41.528 53.7229 41.4537 53.3479C41.528 53.3206 41.6022 53.2854 41.6725 53.2464L47.6451 49.637ZM92.1061 52.0237C92.2116 52.7698 92.2858 53.5237 92.2936 54.2893C92.3405 58.387 90.9538 62.2307 88.5436 65.2933L80.4069 57.1761L80.403 57.18C80.3444 57.1253 80.2819 57.0745 80.2194 57.0277C80.3639 56.7191 80.4811 56.3949 80.5749 56.055C80.6647 55.7152 80.7272 55.3753 80.7585 55.0394C80.8366 55.0316 80.9147 55.016 80.9928 55.0003L92.1061 52.0237ZM74.6921 52.6721C74.8757 52.6643 75.0593 52.6878 75.2507 52.7346C76.2585 53.0042 76.821 53.9807 76.5515 54.9768C76.282 55.9729 75.3093 56.5354 74.3015 56.2659C73.2937 55.9964 72.7351 55.0237 73.0046 54.0276C73.2233 53.219 73.903 52.6917 74.6921 52.6682L74.6921 52.6721ZM35.5671 52.676C36.6101 52.676 37.403 53.4729 37.403 54.5041C37.403 55.5354 36.61 56.3322 35.5671 56.3322C34.5241 56.3322 33.7273 55.5354 33.7273 54.5041C33.7273 53.4729 34.5242 52.676 35.5671 52.676ZM69.8761 57.9494C70.2706 58.5119 70.755 59.008 71.3253 59.4103V59.4142C71.2901 59.4846 71.2628 59.5588 71.2394 59.633L68.2628 70.723C65.4386 69.598 62.9073 67.7269 60.9581 65.2269C61.6729 63.5433 62.2237 61.7738 62.5948 59.9378L69.6378 58.0394C69.7198 58.016 69.8018 57.9925 69.876 57.9574L69.8761 57.9494ZM39.3211 59.1603V59.1642C39.3875 59.2189 39.4539 59.2697 39.5242 59.3205L49.3875 65.258C46.5867 68.8361 42.4148 71.2892 37.6495 71.8518V60.3718C37.6456 60.2937 37.6339 60.2116 37.6183 60.1335C38.2394 59.903 38.8136 59.5749 39.3175 59.1648L39.3211 59.1603ZM31.8289 59.176C32.3328 59.5783 32.8953 59.9025 33.5086 60.1291L33.5125 60.133C33.4969 60.2111 33.4852 60.2931 33.4773 60.3713V71.8443C28.7234 71.2857 24.5633 68.8443 21.7624 65.2818L31.6101 59.3287V59.3326C31.6882 59.2857 31.7585 59.2349 31.8288 59.1802L31.8289 59.176ZM77.3019 59.9221V59.926C77.3488 59.9963 77.4035 60.0627 77.4621 60.1291L85.591 68.2385C84.0168 69.469 82.2199 70.4533 80.2355 71.1018C77.6105 71.9612 74.8957 72.1604 72.2902 71.7893L75.2629 60.7113C75.2824 60.6292 75.298 60.5511 75.3097 60.4691C76.005 60.4066 76.6769 60.2152 77.298 59.9222L77.3019 59.9221Z" fill="black"/>
</svg>
