<svg width="110" height="110" viewBox="0 0 110 110" fill="none" xmlns="http://www.w3.org/2000/svg">
<path d="M42.4407 22C23.9987 22 9 36.9946 9 55.4406C9 73.8826 23.9946 88.8813 42.4407 88.8813H81.2734C88.5909 88.8813 95.366 84.9738 99.0277 78.6352C101.337 74.6346 101.337 69.6915 99.0277 65.6909C96.7179 61.6903 92.4382 59.2188 87.8149 59.2188C83.1954 59.2188 78.9156 61.6903 76.6062 65.6909L70.0653 77.0177C69.677 77.6891 68.9691 78.0977 68.1965 78.0977H67.0153C72.5126 72.1353 75.8821 64.179 75.8821 55.4453C75.8821 37.0034 60.8875 22.0047 42.4415 22.0047L42.4407 22ZM42.4407 26.3161C58.5526 26.3161 71.5652 39.3287 71.5652 55.4406C71.5652 64.8333 67.1359 73.1701 60.255 78.4938C60.2308 78.51 60.2146 78.5262 60.1903 78.5424C55.2796 82.3204 49.1308 84.5655 42.4443 84.5695H42.4402C26.3283 84.5695 13.3157 71.5569 13.3157 55.445C13.3157 39.333 26.3283 26.3204 42.4402 26.3204L42.4407 26.3161ZM42.4407 28.4721C27.5714 28.4721 15.4721 40.5713 15.4721 55.4406C15.4721 70.3099 27.5714 82.4092 42.4407 82.4092C57.31 82.4092 69.4092 70.3099 69.4092 55.4406C69.4092 40.5713 57.31 28.4721 42.4407 28.4721ZM42.4407 32.7882C54.9759 32.7882 65.0931 42.9049 65.0931 55.4406C65.0931 67.9758 54.9764 78.0931 42.4407 78.0931C29.9049 78.0931 19.7882 67.9764 19.7882 55.4406C19.7882 42.9055 29.9049 32.7882 42.4407 32.7882ZM42.4407 34.9442C31.1471 34.9442 21.9442 44.1468 21.9442 55.4406C21.9442 66.7345 31.1468 75.9371 42.4407 75.9371C53.7345 75.9371 62.9371 66.7345 62.9371 55.4406C62.9371 44.1468 53.7345 34.9442 42.4407 34.9442ZM42.4407 39.2604C46.1662 39.2604 49.5883 40.5103 52.3188 42.6137C50.9717 42.4519 49.5964 42.5045 48.2292 42.6987C46.061 41.5702 43.6907 41.4448 41.3081 41.4649C39.0186 41.651 36.7695 42.3994 34.7834 43.6937C30.8152 46.2826 28.4205 50.6554 28.4205 55.1696C28.4205 57.4793 29.6583 59.6192 31.6566 60.772C33.6548 61.9249 36.1304 61.9249 38.1287 60.772C40.127 59.6192 41.3647 57.4753 41.3647 55.1696C41.3647 52.0832 43.007 49.2395 45.6809 47.6942C48.3546 46.149 51.6392 46.149 54.309 47.6942C56.7603 49.11 58.3378 51.618 58.5846 54.401C58.6089 54.7448 58.6251 55.0887 58.6251 55.4365C58.6251 64.3963 51.4045 71.6168 42.4448 71.6168C38.3552 71.6168 34.6337 70.1121 31.7942 67.6284C33.1493 67.9034 34.5448 67.952 35.9364 67.8347C35.9445 67.8508 35.9607 67.867 35.9688 67.8751C40.3132 70.1363 45.5313 69.9664 49.7176 67.4261C53.9039 64.8858 56.4688 60.335 56.4688 55.4366C56.4688 53.1269 55.4211 50.8253 53.2327 49.5632C51.2345 48.4103 48.7589 48.4103 46.7606 49.5632C44.7623 50.716 43.5246 52.8599 43.5246 55.1656C43.5246 58.2521 41.8823 61.0958 39.2084 62.641C36.5347 64.1862 33.2501 64.1862 30.5803 62.641C27.9389 61.1159 26.3087 58.3208 26.2682 55.2749C26.3532 46.3879 33.5372 39.2561 42.4444 39.2561L42.4407 39.2604ZM41.6519 45.7607C41.668 45.7607 41.6923 45.7688 41.7085 45.7688C38.97 48.2 37.0445 51.432 37.0445 55.1696C37.0445 55.9422 36.636 56.6501 35.9645 57.0344C35.293 57.4227 34.4759 57.4227 33.8085 57.0344C33.137 56.646 32.7284 55.9422 32.7284 55.1696C32.7284 52.2126 34.3869 49.0979 37.1375 47.3059C38.5128 46.4079 40.0661 45.8902 41.6519 45.7607ZM49.9888 53.0136C50.3609 53.0136 50.7331 53.1106 51.0688 53.3048C51.5502 53.5839 52.1489 54.668 52.1489 55.4406C52.1489 58.8384 50.3812 61.9815 47.4769 63.7411C45.9842 64.6472 44.3136 65.0841 42.6268 65.1164C45.7254 62.6852 47.8328 59.1782 47.8328 55.1735C47.8328 54.4009 48.2413 53.693 48.9129 53.3087C49.2486 53.1146 49.6207 53.0175 49.9929 53.0175L49.9888 53.0136ZM87.8098 63.5305C90.8962 63.5305 93.7399 65.1727 95.2851 67.8466C96.8303 70.5204 96.8303 73.805 95.2851 76.4747C92.3929 81.4825 87.0534 84.5649 81.2691 84.5649H58.8393C59.9962 83.9096 61.1167 83.1896 62.1846 82.4089H81.2696C86.2774 82.4089 90.909 79.7351 93.4134 75.3988C94.5662 73.4005 94.5662 70.925 93.4134 68.9267C92.2605 66.9284 90.1166 65.6906 87.8109 65.6906C85.5011 65.6906 83.3613 66.9284 82.2084 68.9267L76.9174 78.0969H74.4257L80.3436 67.8508C81.8889 65.177 84.7285 63.5346 87.8148 63.5346L87.8098 63.5305ZM87.8098 70.0026C88.5824 70.0026 89.2903 70.4112 89.6746 71.0827C90.0629 71.7542 90.0629 72.5713 89.6746 73.2387C88.0687 76.0176 85.1683 77.6397 82.0052 77.8945L85.941 71.0827C86.3294 70.4112 87.0332 70.0026 87.8058 70.0026H87.8098Z" fill="black"/>
</svg>
