<svg width="110" height="110" viewBox="0 0 110 110" fill="none" xmlns="http://www.w3.org/2000/svg">
<path d="M55.3512 14.008C48.609 14.008 42.5032 14.8518 37.9102 16.3127C35.6133 17.0393 33.6836 17.9025 32.1875 19.0236C30.6914 20.1447 29.4922 21.6916 29.4922 23.6213C29.4922 23.8362 29.5078 24.0471 29.539 24.2541C24.8163 27.0119 22.0273 30.6174 22.0117 34.5511C22.0078 34.559 22.0078 34.5746 22.0039 34.5824V45.3594C22.0039 48.6875 23.9883 51.6602 27.0039 54.0039C27.9649 54.75 29.0508 55.4414 30.2305 56.0859C29.2227 56.9101 28.3789 57.7968 27.7227 58.7539C26.7422 60.1875 26.1993 61.8203 26.1797 63.4531C26.1758 63.4687 26.1758 63.4765 26.1719 63.4922C26.1719 67.1055 23.25 68.2266 23.25 68.2266C22.4922 68.5586 22 69.3086 22 70.1368V79.6524C22 82.9805 23.9844 85.9687 27 88.3125C30.0156 90.6523 34.1602 92.5001 39.195 93.8009C49.265 96.4064 61.422 96.4064 71.492 93.8009C76.5272 92.4962 80.6717 90.6524 83.687 88.3125C86.7026 85.9727 88.6714 82.9845 88.6714 79.6524V70.1368C88.6714 69.3086 88.1831 68.5626 87.4253 68.2266C87.4253 68.2266 84.4995 67.1016 84.4995 63.4922C84.4839 61.836 83.9331 60.1758 82.9331 58.7227C82.2808 57.7773 81.4526 56.9024 80.4604 56.086C81.6401 55.4414 82.726 54.7462 83.687 54.004C86.7026 51.6642 88.6714 48.6915 88.6714 45.3595V34.5825C88.6714 34.5668 88.6675 34.559 88.6675 34.5434C88.6519 30.6059 85.8745 26.9965 81.148 24.2344C81.1792 24.0313 81.1949 23.8242 81.1949 23.6133C81.1949 21.6836 79.984 20.1367 78.4879 19.0156C76.9918 17.8945 75.0738 17.0351 72.7809 16.3047C68.1871 14.8477 62.0899 14 55.3429 14L55.3512 14.008ZM55.3512 18.1603C61.7379 18.1603 67.5192 19.0119 71.5312 20.2853C73.5351 20.922 75.0897 21.6759 76.0038 22.3595C76.914 23.0431 77.0391 23.465 77.0391 23.6212C77.0391 23.7774 76.918 24.2111 76.0038 24.8946C75.0937 25.5782 73.5391 26.336 71.5312 26.9727C67.5195 28.2461 61.7382 29.0938 55.3512 29.0938C48.9645 29.0938 43.1792 28.2462 39.1672 26.9727C37.1633 26.336 35.6086 25.5782 34.6945 24.8946C33.7843 24.211 33.6593 23.7735 33.6593 23.6212C33.6593 23.465 33.7803 23.0431 34.6945 22.3595C35.6046 21.6759 37.1593 20.922 39.1672 20.2853C43.1789 19.0119 48.9641 18.1603 55.3512 18.1603ZM55.3472 21.4728C51.5933 21.4728 48.5542 22.4377 48.5542 23.629C48.5582 24.8165 51.5972 25.7813 55.3472 25.7813C59.0933 25.7813 62.1324 24.8165 62.1402 23.629C62.1441 22.4376 59.1011 21.4728 55.3472 21.4728ZM79.0112 27.8126C82.9878 30.0978 84.5073 32.5079 84.5034 34.5821V34.6173C84.5034 34.7306 84.4995 34.8399 84.4878 34.9493C84.2808 37.3048 81.855 40.3126 76.1675 42.7618V42.7774C64.7925 47.6758 45.8315 47.668 34.4765 42.7618C28.8007 40.3087 26.3867 37.2891 26.1874 34.9376C26.0077 32.7931 27.4843 30.2306 31.6757 27.8204C31.8398 27.961 32.0117 28.1017 32.1835 28.2306C32.5976 28.5392 33.0468 28.8282 33.5273 29.1017C32.9062 29.4571 32.3437 29.836 31.8437 30.2462C30.4296 31.4064 29.4101 32.9923 29.4921 34.7814C29.5742 36.5744 30.6991 38.0626 32.1874 39.1798C33.6718 40.297 35.6288 41.1915 38.121 41.965C48.0819 45.0509 63.082 45.0275 72.894 41.8751C75.3471 41.0861 77.2651 40.172 78.7104 39.0274C80.1557 37.8829 81.2182 36.3321 81.2026 34.5391C81.187 32.7461 80.1049 31.2266 78.6479 30.0899C78.1987 29.7384 77.6987 29.4102 77.1557 29.1016C77.6323 28.8282 78.0854 28.5391 78.4995 28.2306C78.6753 28.0977 78.8472 27.9532 79.0151 27.8087L79.0112 27.8126ZM39.0382 31.2657C42.9796 32.379 47.8741 33.0704 53.2682 33.2149C53.2292 34.5508 53.2526 35.8946 53.2526 37.2305C53.2487 38.3907 54.1901 39.3282 55.3464 39.3203C56.4987 39.3164 57.4245 38.3789 57.4206 37.2305C57.4245 35.8907 57.4206 34.5508 57.4128 33.2149C62.8034 33.0743 67.6938 32.379 71.6398 31.2696C73.7336 31.9454 75.2257 32.7266 76.0734 33.3868C76.9367 34.0587 77.0265 34.4571 77.0304 34.586C77.0304 34.7149 76.9679 35.086 76.1242 35.754C75.2804 36.422 73.757 37.2188 71.6164 37.9063C63.05 40.6563 48.1004 40.6915 39.3544 37.9845C37.1669 37.3048 35.5966 36.5275 34.6942 35.8478C33.7918 35.1681 33.6669 34.7345 33.659 34.6017C33.6512 34.4688 33.6824 34.1212 34.491 33.4611C35.8308 32.4025 37.4561 31.8555 39.0382 31.2657ZM26.1752 42.5667C27.9213 44.0784 30.1635 45.43 32.8314 46.5823C45.6554 52.1214 64.9724 52.1253 77.8154 46.598C80.499 45.4418 82.7529 44.0941 84.5029 42.5785V45.3715C84.5029 47.0473 83.5186 48.8754 81.1396 50.7231C78.7607 52.5708 75.0849 54.2778 70.4516 55.477C61.186 57.8754 49.5136 57.8754 40.2486 55.477C35.6158 54.2778 31.94 52.5708 29.5606 50.7231C27.1812 48.8754 26.1778 47.0473 26.1778 45.3715L26.1752 42.5667ZM34.6322 58.0787C35.1205 58.2623 35.6166 58.4381 36.1244 58.6061C35.3627 59.067 34.6869 59.5748 34.1283 60.1608C33.2533 61.0748 32.1283 62.2975 32.1791 63.653C32.2338 65.0046 33.4447 66.2155 34.4213 67.1296C36.3705 68.9538 39.2807 70.0319 42.894 70.8523C46.5073 71.6727 50.8237 72.1296 55.382 72.1257C59.9406 72.1218 64.2453 71.6608 67.855 70.8366C71.4647 70.0123 74.3745 68.9264 76.3159 67.0983C77.2847 66.1842 78.48 64.9772 78.519 63.6217C78.5894 61.2662 76.2378 59.61 74.5815 58.61C75.0894 58.442 75.5854 58.2623 76.0698 58.0826C77.726 59.0904 78.851 60.1412 79.5112 61.1021C80.4448 62.4576 80.4136 63.5044 80.3081 64.024C80.0191 65.8912 77.8589 68.4224 73.0151 70.4498C63.3315 74.5045 47.3981 74.5123 37.6911 70.4655C32.8395 68.4421 30.6794 65.9069 30.3825 64.0358C30.2341 63.1022 30.4216 62.1999 31.1677 61.1139C31.8278 60.149 32.9568 59.0944 34.6247 58.0787L34.6322 58.0787ZM43.1322 60.3834C50.9916 61.8326 59.7142 61.8326 67.5702 60.3834C70.7421 61.1803 72.8514 62.3092 73.5429 63.024C73.9375 63.4303 73.8398 63.6803 73.4492 64.0709C72.5742 64.8991 70.1445 66.0397 66.914 66.7779C63.6874 67.5162 59.6562 67.9615 55.379 67.9615C51.1018 67.9615 47.0509 67.5279 43.817 66.7935C40.5831 66.0591 38.1568 64.9185 37.2662 64.0865C36.8912 63.7115 36.7818 63.4186 37.1451 63.0396C37.8287 62.3248 39.942 61.1841 43.1334 60.3834H43.1322ZM28.4212 69.1803C30.136 71.2037 32.7689 72.9225 36.097 74.3131C47.214 78.9498 63.535 78.942 74.636 74.2975C77.9407 72.9147 80.554 71.2037 82.2649 69.1881C83.0267 70.0983 83.8547 70.7154 84.4837 71.1178C84.3548 72.6959 83.3587 74.3951 81.1439 76.1139C78.765 77.9616 75.0892 79.6842 70.4559 80.8834C61.1903 83.2818 49.5179 83.2818 40.2529 80.8834C35.6201 79.6842 31.9443 77.9615 29.5649 76.1139C27.3501 74.3951 26.3383 72.6959 26.2094 71.1178C26.8384 70.7155 27.6703 70.0983 28.4321 69.1842L28.4212 69.1803ZM26.1751 78.7076C26.4447 78.942 26.7142 79.1803 27.0072 79.4029C30.0228 81.7427 34.1674 83.606 39.2022 84.9068C49.2722 87.5123 61.4292 87.5123 71.4992 84.9068C76.5344 83.6021 80.6789 81.7427 83.6942 79.4029C83.9793 79.1842 84.245 78.9498 84.5067 78.7193V79.6647C84.5067 81.3405 83.5223 83.1842 81.1434 85.0319C78.7645 86.8796 75.0887 88.5866 70.4554 89.7858C61.1898 92.1842 49.5174 92.1842 40.2524 89.7858C35.6196 88.5866 31.9438 86.8796 29.5644 85.0319C27.1855 83.1842 26.1816 81.3405 26.1816 79.6647L26.1751 78.7076Z" fill="black"/>
</svg>
