<svg width="110" height="110" viewBox="0 0 110 110" fill="none" xmlns="http://www.w3.org/2000/svg">
<path d="M59.9323 5C59.5691 5.01562 59.2136 5.12109 58.9011 5.3125L57.909 5.92969C57.7058 5.8125 57.4832 5.72657 57.2527 5.6836C56.7136 5.58594 56.155 5.70704 55.7019 6.01954C55.0964 6.4336 54.7527 7.13674 54.7996 7.87114L50.0926 10.8047C49.3933 10.3633 48.4988 10.3829 47.8153 10.8438C47.1903 11.2774 46.8504 12.0196 46.9325 12.7774L45.9832 13.3672C45.0028 13.9766 44.7059 15.2656 45.3192 16.2422C45.9286 17.2227 47.2176 17.5195 48.1942 16.9063L49.0614 16.3672L49.6746 17.2735C49.3192 17.5079 48.9168 17.7618 48.6082 17.9805C47.3894 18.8594 46.4402 19.7071 45.8074 20.8243C45.1785 21.9415 45.0106 23.1759 45.0106 24.3946V102.922C45.0145 104.066 45.9403 104.992 47.0848 104.996H53.327C54.4793 105.004 55.4168 104.074 55.4208 102.922V24.3946C55.4208 22.754 55.5575 21.7735 55.7411 21.2579C55.9286 20.7423 56.0809 20.5821 56.6473 20.1681C57.784 19.34 60.5535 17.7892 64.9364 15.172C65.8192 14.5548 66.0848 13.3673 65.5497 12.4337L64.5185 10.6017C64.2373 10.1095 63.7646 9.75406 63.2138 9.61734C62.6552 9.47672 62.0654 9.57047 61.581 9.87906C61.3896 10.0002 61.2529 10.0783 61.0693 10.1955L60.4365 9.26969L61.1084 8.85172C62.0849 8.24234 62.3818 6.94942 61.7685 5.97672C61.4716 5.50797 61.0029 5.17984 60.4638 5.05875C60.288 5.01969 60.1083 5.00406 59.9287 5.00406L59.9323 5ZM56.905 11.4766L57.5379 12.4024C55.8777 13.4219 54.4402 14.2969 53.2059 15.0469L52.6004 14.1602L56.905 11.4766ZM51.7058 20.9532C51.4715 21.9884 51.2605 22.9962 51.2605 24.3946V100.833H49.1707V24.3946C49.1707 23.5274 49.2645 23.2149 49.4481 22.8907C49.6317 22.5665 50.0535 22.086 51.0458 21.3673C51.1473 21.297 51.5927 21.0314 51.7098 20.9532L51.7058 20.9532Z" fill="black"/>
</svg>
